# xmcd
#
# Track frame offsets: 
#        150
#        9646
#        19508
#        30474
#        43336
#        55691
#        66221
#        75588
#        86966
#        97982
#        108701
#        119800
#        129745
#        142631
#        152756
#        164410
#        174275
#        186607
#        196922
#        210997
#        223492
#        234313
#        247084
#        256302
#
# Disc length: 3565 seconds
#
# Revision: 2
# Processed by: cddbd v1.5.1PL2 Copyright (c) Steve Scherf et al.
# Submitted via: ExactAudioCopy v0.90b4
#
DISCID=560deb18
DTITLE=Jim Reeves - Up Through The Years and Distant Drums
DYEAR=1965
DGENRE=Country
TTITLE0=I Know One
TTITLE1=Tweedle O'Twill
TTITLE2=Little Ole You
TTITLE3=Bimbo
TTITLE4=Pride Goes Before A Fall
TTITLE5=Ichabod Crane
TTITLE6=Young Hearts
TTITLE7=That's A Sad Affair
TTITLE8=Jimbo Jenkins
TTITLE9=Two Shadows On Your Window
TTITLE10=I'm Hurtin' Inside
TTITLE11=Nooient Jie Van Die Or Transvaal
TTITLE12=Distant Drums
TTITLE13=Is It Really Over?
TTITLE14=I Missed Me
TTITLE15=Snowflake
TTITLE16=A Letter To My Heart
TTITLE17=Losing Your Love
TTITLE18=This Is It
TTITLE19=Not Until The Next Time
TTITLE20=Good Morning Self
TTITLE21=Where Does A Broken Heart Go?
TTITLE22=Overnight
TTITLE23=The Gods Were Angry With Me
EXTD=Up Through The Years and Distant Drums\n\nThis Compilation Released
EXTD=July 20, 2004\n''Up Through The Years'' Originally Released 1965
EXTD=\n''Distant Drums'' Originally Released 1966\n''Distant Drums'' D
EXTD=CC CD Edition Released February 10, 1998\n\n
EXTT0=
EXTT1=
EXTT2=
EXTT3=
EXTT4=
EXTT5=
EXTT6=
EXTT7=
EXTT8=
EXTT9=
EXTT10=
EXTT11=
EXTT12=
EXTT13=
EXTT14=
EXTT15=
EXTT16=
EXTT17=
EXTT18=
EXTT19=
EXTT20=
EXTT21=
EXTT22=
EXTT23=
PLAYORDER=
